<svg width="1397" height="1150" xmlns="http://www.w3.org/2000/svg" xmlns:xlink="http://www.w3.org/1999/xlink" xml:space="preserve" overflow="hidden"><defs><clipPath id="clip0"><rect x="706" y="1057" width="1397" height="1150"/></clipPath></defs><g clip-path="url(#clip0)" transform="translate(-706 -1057)"><rect x="707" y="1058" width="1394" height="1147" fill="#FFFFFF"/><g><path d="M1403.55 1625.55 1439.55 1636.55M1439.55 1636.55 1463.55 1664.55M1463.55 1664.55 1468.55 1700.56M1468.55 1700.56 1453.55 1734.56M1453.55 1734.56 1422.55 1754.56M1422.55 1754.56 1385.55 1754.56M1385.55 1754.56 1354.54 1734.56M1354.54 1734.56 1339.54 1700.56M1339.54 1700.56 1344.54 1664.55M1344.54 1664.55 1368.55 1636.55M1368.55 1636.55 1403.55 1625.55M1403.55 1560.55 1474.55 1581.55M1474.55 1581.55 1522.55 1637.55M1522.55 1637.55 1533.55 1709.56M1533.55 1709.56 1502.55 1776.56M1502.55 1776.56 1440.55 1816.56M1440.55 1816.56 1367.55 1816.56M1367.55 1816.56 1305.54 1776.56M1305.54 1776.56 1274.54 1709.56M1274.54 1709.56 1284.54 1637.55M1284.54 1637.55 1333.54 1581.55M1333.54 1581.55 1403.55 1560.55M1403.55 1495.55 1509.55 1526.55M1509.55 1526.55 1582.55 1609.55M1582.55 1609.55 1597.55 1719.56M1597.55 1719.56 1551.55 1819.56M1551.55 1819.56 1459.55 1879.56M1459.55 1879.56 1348.54 1879.56M1348.54 1879.56 1255.54 1819.56M1255.54 1819.56 1209.54 1719.56M1209.54 1719.56 1225.54 1609.55M1225.54 1609.55 1297.54 1526.55M1297.54 1526.55 1403.55 1495.55M1403.55 1429.55 1545.55 1471.55M1545.55 1471.55 1641.55 1582.55M1641.55 1582.55 1662.55 1728.56M1662.55 1728.56 1601.55 1862.56M1601.55 1862.56 1477.55 1942.56M1477.55 1942.56 1330.54 1942.56M1330.54 1942.56 1206.54 1862.56M1206.54 1862.56 1145.54 1728.56M1145.54 1728.56 1166.54 1582.55M1166.54 1582.55 1262.54 1471.55M1262.54 1471.55 1403.55 1429.55M1403.55 1364.5 1580.55 1416.55M1580.55 1416.55 1701.56 1555.55M1701.56 1555.55 1727.5 1737.56M1727.5 1737.56 1650.55 1905.56M1650.55 1905.56 1495.55 2004.5M1495.55 2004.5 1311.54 2004.5M1311.54 2004.5 1156.54 1905.56M1156.54 1905.56 1080.5 1737.56M1080.5 1737.56 1106.54 1555.55M1106.54 1555.55 1227.54 1416.55M1227.54 1416.55 1403.55 1364.5" stroke="#D9D9D9" stroke-width="3.4375" stroke-linejoin="round" stroke-miterlimit="10" fill="none"/></g><g><path d="M1271.04 1485.05 1404.05 1381 1566.05 1439.05 1582.05 1610.05 1707 1735.06 1552.05 1820.06 1496.05 2005 1312.04 2005 1203 1865.06 1339.04 1701.06 1255.04 1623.05 1271.04 1485.05" stroke="#156082" stroke-width="10.3125" stroke-linecap="round" stroke-linejoin="round" stroke-miterlimit="10" fill="none"/></g><g><path d="M1414.25 1380.22C1414.25 1386.29 1409.32 1391.22 1403.25 1391.22 1397.17 1391.22 1392.25 1386.29 1392.25 1380.22 1392.25 1374.14 1397.17 1369.22 1403.25 1369.22 1409.32 1369.22 1414.25 1374.14 1414.25 1380.22Z" stroke="#156082" stroke-width="3.4375" stroke-linejoin="round" stroke-miterlimit="10" fill="#156082"/><path d="M1576.25 1439.22C1576.25 1445.29 1571.32 1450.22 1565.25 1450.22 1559.17 1450.22 1554.25 1445.29 1554.25 1439.22 1554.25 1433.14 1559.17 1428.22 1565.25 1428.22 1571.32 1428.22 1576.25 1433.14 1576.25 1439.22Z" stroke="#156082" stroke-width="3.4375" stroke-linejoin="round" stroke-miterlimit="10" fill="#156082"/><path d="M1593.25 1609.22C1593.25 1615.29 1588.32 1620.22 1582.25 1620.22 1576.17 1620.22 1571.25 1615.29 1571.25 1609.22 1571.25 1603.14 1576.17 1598.22 1582.25 1598.22 1588.32 1598.22 1593.25 1603.14 1593.25 1609.22Z" stroke="#156082" stroke-width="3.4375" stroke-linejoin="round" stroke-miterlimit="10" fill="#156082"/><path d="M1718.25 1734.22C1718.25 1740.29 1713.32 1745.22 1707.25 1745.22 1701.17 1745.22 1696.25 1740.29 1696.25 1734.22 1696.25 1728.14 1701.17 1723.22 1707.25 1723.22 1713.32 1723.22 1718.25 1728.14 1718.25 1734.22Z" stroke="#156082" stroke-width="3.4375" stroke-linejoin="round" stroke-miterlimit="10" fill="#156082"/><path d="M1563.25 1819.22C1563.25 1825.29 1558.32 1830.22 1552.25 1830.22 1546.17 1830.22 1541.25 1825.29 1541.25 1819.22 1541.25 1813.14 1546.17 1808.22 1552.25 1808.22 1558.32 1808.22 1563.25 1813.14 1563.25 1819.22Z" stroke="#156082" stroke-width="3.4375" stroke-linejoin="round" stroke-miterlimit="10" fill="#156082"/><path d="M1506.25 2004.22C1506.25 2010.29 1501.32 2015.22 1495.25 2015.22 1489.17 2015.22 1484.25 2010.29 1484.25 2004.22 1484.25 1998.14 1489.17 1993.22 1495.25 1993.22 1501.32 1993.22 1506.25 1998.14 1506.25 2004.22Z" stroke="#156082" stroke-width="3.4375" stroke-linejoin="round" stroke-miterlimit="10" fill="#156082"/><path d="M1322.25 2004.22C1322.25 2010.29 1317.32 2015.22 1311.25 2015.22 1305.17 2015.22 1300.25 2010.29 1300.25 2004.22 1300.25 1998.14 1305.17 1993.22 1311.25 1993.22 1317.32 1993.22 1322.25 1998.14 1322.25 2004.22Z" stroke="#156082" stroke-width="3.4375" stroke-linejoin="round" stroke-miterlimit="10" fill="#156082"/><path d="M1214.25 1865.22C1214.25 1871.29 1209.32 1876.22 1203.25 1876.22 1197.17 1876.22 1192.25 1871.29 1192.25 1865.22 1192.25 1859.14 1197.17 1854.22 1203.25 1854.22 1209.32 1854.22 1214.25 1859.14 1214.25 1865.22Z" stroke="#156082" stroke-width="3.4375" stroke-linejoin="round" stroke-miterlimit="10" fill="#156082"/><path d="M1350.25 1700.22C1350.25 1706.29 1345.32 1711.22 1339.25 1711.22 1333.17 1711.22 1328.25 1706.29 1328.25 1700.22 1328.25 1694.14 1333.17 1689.22 1339.25 1689.22 1345.32 1689.22 1350.25 1694.14 1350.25 1700.22Z" stroke="#156082" stroke-width="3.4375" stroke-linejoin="round" stroke-miterlimit="10" fill="#156082"/><path d="M1266.25 1623.22C1266.25 1629.29 1261.32 1634.22 1255.25 1634.22 1249.17 1634.22 1244.25 1629.29 1244.25 1623.22 1244.25 1617.14 1249.17 1612.22 1255.25 1612.22 1261.32 1612.22 1266.25 1617.14 1266.25 1623.22Z" stroke="#156082" stroke-width="3.4375" stroke-linejoin="round" stroke-miterlimit="10" fill="#156082"/><path d="M1282.25 1485.22C1282.25 1491.29 1277.32 1496.22 1271.25 1496.22 1265.17 1496.22 1260.25 1491.29 1260.25 1485.22 1260.25 1479.14 1265.17 1474.22 1271.25 1474.22 1277.32 1474.22 1282.25 1479.14 1282.25 1485.22Z" stroke="#156082" stroke-width="3.4375" stroke-linejoin="round" stroke-miterlimit="10" fill="#156082"/></g><g><text fill="#595959" font-family="Aptos Narrow,Aptos Narrow_MSFontService,sans-serif" font-weight="400" font-stretch="semi-condensed" font-size="41" transform="matrix(1 0 0 1 1309.8 1705)">0%</text></g><g><text fill="#595959" font-family="Aptos Narrow,Aptos Narrow_MSFontService,sans-serif" font-weight="400" font-stretch="semi-condensed" font-size="41" transform="matrix(1 0 0 1 1288.9 1640)">20%</text></g><g><text fill="#595959" font-family="Aptos Narrow,Aptos Narrow_MSFontService,sans-serif" font-weight="400" font-stretch="semi-condensed" font-size="41" transform="matrix(1 0 0 1 1288.9 1575)">40%</text></g><g><text fill="#595959" font-family="Aptos Narrow,Aptos Narrow_MSFontService,sans-serif" font-weight="400" font-stretch="semi-condensed" font-size="41" transform="matrix(1 0 0 1 1288.9 1509)">60%</text></g><g><text fill="#595959" font-family="Aptos Narrow,Aptos Narrow_MSFontService,sans-serif" font-weight="400" font-stretch="semi-condensed" font-size="41" transform="matrix(1 0 0 1 1288.9 1444)">80%</text></g><g><text fill="#595959" font-family="Aptos Narrow,Aptos Narrow_MSFontService,sans-serif" font-weight="400" font-stretch="semi-condensed" font-size="41" transform="matrix(1 0 0 1 1268 1378)">100%</text></g><g><text fill="#595959" font-family="Aptos Narrow,Aptos Narrow_MSFontService,sans-serif" font-weight="400" font-stretch="semi-condensed" font-size="41" transform="matrix(1 0 0 1 1288.78 1285)">Connecting to</text></g><g><text fill="#595959" font-family="Aptos Narrow,Aptos Narrow_MSFontService,sans-serif" font-weight="400" font-stretch="semi-condensed" font-size="41" transform="matrix(1 0 0 1 1319.95 1336)">laboratory</text></g><g><text fill="#595959" font-family="Aptos Narrow,Aptos Narrow_MSFontService,sans-serif" font-weight="400" font-stretch="semi-condensed" font-size="41" transform="matrix(1 0 0 1 1587.62 1417)">Technical Quality</text></g><g><text fill="#595959" font-family="Aptos Narrow,Aptos Narrow_MSFontService,sans-serif" font-weight="400" font-stretch="semi-condensed" font-size="41" transform="matrix(1 0 0 1 1712.99 1562)">Interaction Modes</text></g><g><text fill="#595959" font-family="Aptos Narrow,Aptos Narrow_MSFontService,sans-serif" font-weight="400" font-stretch="semi-condensed" font-size="41" transform="matrix(1 0 0 1 1740.25 1751)">Immersion</text></g><g><text fill="#595959" font-family="Aptos Narrow,Aptos Narrow_MSFontService,sans-serif" font-weight="400" font-stretch="semi-condensed" font-size="41" transform="matrix(1 0 0 1 1660.7 1925)">Feedback to users</text></g><g><text fill="#595959" font-family="Aptos Narrow,Aptos Narrow_MSFontService,sans-serif" font-weight="400" font-stretch="semi-condensed" font-size="41" transform="matrix(1 0 0 1 1515.55 2004)">Rules and</text></g><g><text fill="#595959" font-family="Aptos Narrow,Aptos Narrow_MSFontService,sans-serif" font-weight="400" font-stretch="semi-condensed" font-size="41" transform="matrix(1 0 0 1 1499.6 2054)">Regulations</text></g><g><text fill="#595959" font-family="Aptos Narrow,Aptos Narrow_MSFontService,sans-serif" font-weight="400" font-stretch="semi-condensed" font-size="41" transform="matrix(1 0 0 1 1039.43 2029)">Up-to-date-ness</text></g><g><text fill="#595959" font-family="Aptos Narrow,Aptos Narrow_MSFontService,sans-serif" font-weight="400" font-stretch="semi-condensed" font-size="41" transform="matrix(1 0 0 1 825.94 1925)">Information Display</text></g><g><text fill="#595959" font-family="Aptos Narrow,Aptos Narrow_MSFontService,sans-serif" font-weight="400" font-stretch="semi-condensed" font-size="41" transform="matrix(1 0 0 1 861.135 1751)">Accessibility</text></g><g><text fill="#595959" font-family="Aptos Narrow,Aptos Narrow_MSFontService,sans-serif" font-weight="400" font-stretch="semi-condensed" font-size="41" transform="matrix(1 0 0 1 874.214 1537)">Development</text></g><g><text fill="#595959" font-family="Aptos Narrow,Aptos Narrow_MSFontService,sans-serif" font-weight="400" font-stretch="semi-condensed" font-size="41" transform="matrix(1 0 0 1 918.626 1587)">Process</text></g><g><text fill="#595959" font-family="Aptos Narrow,Aptos Narrow_MSFontService,sans-serif" font-weight="400" font-stretch="semi-condensed" font-size="41" transform="matrix(1 0 0 1 944.766 1417)">Perspective Shift</text></g><g><text fill="#595959" font-family="Aptos Narrow,Aptos Narrow_MSFontService,sans-serif" font-weight="400" font-stretch="semi-condensed" font-size="64" transform="matrix(1 0 0 1 1117.72 1141)">Usability across categories</text></g><rect x="707.5" y="1058.5" width="1394" height="1147" stroke="#D9D9D9" stroke-width="3.4375" stroke-linejoin="round" stroke-miterlimit="10" fill="none"/></g></svg>